<?xml version="1.0" encoding="UTF-8" standalone="no"?>
<!-- Uploaded to: SVG Repo, www.svgrepo.com, Transformed by: SVG Repo Mixer Tools -->

<svg
   fill="#a78bfa"
   height="217.04002"
   width="983.23212"
   version="1.1"
   id="Layer_1"
   viewBox="-51.2 -51.2 2359.7571 520.89605"
   xml:space="preserve"
   stroke="#a78bfa"
   stroke-width="5.12"
   xmlns="http://www.w3.org/2000/svg"
   xmlns:svg="http://www.w3.org/2000/svg"><defs
   id="defs2" />





<g
   id="SVGRepo_iconCarrier"
   transform="translate(-48.64,-54.205)"> <g
   id="g2"
   style="fill:#a78bfa;fill-opacity:1"> <g
   id="g1"
   style="fill:#a78bfa;fill-opacity:1"> <path
   d="m 294.957,339.478 c 40.316,0 74.041,-28.724 81.796,-66.783 h 35.073 c 27.619,0 50.087,-22.468 50.087,-50.087 V 203.715 C 490.671,196.274 512,170.183 512,139.13 512,100.087 478.338,68.841 438.694,72.666 422.672,32.952 379.019,5.565 328.348,5.565 c -50.671,0 -94.324,27.386 -110.346,67.101 -39.632,-3.823 -73.306,27.41 -73.306,66.464 0,36.826 29.956,66.783 66.783,66.783 h 66.783 v 16.696 c 0,9.206 -7.49,16.696 -16.696,16.696 -46.505,0 -86.63,27.366 -105.435,66.783 H 128 c -9.206,0 -16.696,-7.49 -16.696,-16.696 27.619,0 50.087,-22.468 50.087,-50.087 0,-22.565 -15,-41.685 -35.544,-47.934 -6.25,-20.543 -25.37,-35.544 -47.934,-35.544 -24.117,0 -43.669,16.853 -48.75,38.521 C 11.717,202.565 0,219.924 0,239.304 c 0,27.619 22.468,50.087 50.087,50.087 h 27.826 c 0,27.619 22.468,50.087 50.087,50.087 h 18.03 c -0.788,5.468 -1.335,11.012 -1.335,16.696 V 372.87 H 61.217 c -9.217,0 -16.696,7.479 -16.696,16.696 0,64.445 52.424,116.87 116.87,116.87 h 200.348 c 64.445,0 116.87,-52.424 116.87,-116.87 0,-9.217 -7.479,-16.696 -16.696,-16.696 h -83.478 v -16.696 c 0,-9.217 -7.479,-16.696 -16.696,-16.696 -9.217,0 -16.696,7.479 -16.696,16.696 V 372.87 H 278.26 v -16.696 c 0.001,-9.206 7.491,-16.696 16.697,-16.696 z m 83.478,-133.565 h 50.087 v 16.696 c 0,9.206 -7.49,16.696 -16.696,16.696 H 378.435 Z M 244.87,356.174 v 16.696 h -66.783 v -16.696 c 0,-46.032 37.446,-83.478 83.478,-83.478 27.619,0 50.087,-22.468 50.087,-50.087 v -16.696 h 33.391 V 256 c 0,27.619 -22.468,50.087 -50.087,50.087 -27.619,0 -50.086,22.468 -50.086,50.087 z"
   id="path1"
   style="fill:#a78bfa;fill-opacity:1" /> </g> </g> </g>

<text
   xml:space="preserve"
   style="font-style:normal;font-variant:normal;font-weight:normal;font-stretch:normal;font-size:460.8px;line-height:0;font-family:Cantarell;-inkscape-font-specification:Cantarell;opacity:1;fill:#a78bfa;fill-opacity:1;stroke:#ffffff;stroke-width:10.6355;stroke-opacity:0"
   x="534.78375"
   y="388.89844"
   id="text4"
   transform="scale(0.86177159,1.1604003)"><tspan
     id="tspan4"
     style="font-style:normal;font-variant:normal;font-weight:normal;font-stretch:normal;font-size:460.8px;line-height:0;font-family:'Dayten Vintage Personal Use';-inkscape-font-specification:'Dayten Vintage Personal Use';fill:#1a1a1a;fill-opacity:1;stroke:#ffffff;stroke-width:10.6355;stroke-opacity:0"
     x="534.78375"
     y="388.89844">Bonzai</tspan></text><text
   xml:space="preserve"
   style="font-style:normal;font-variant:normal;font-weight:normal;font-stretch:normal;font-size:460.8px;line-height:0;font-family:'Ubuntu Condensed';-inkscape-font-specification:'Ubuntu Condensed, ';opacity:1;fill:#a78bfa;fill-opacity:1;stroke-width:10.8899"
   x="1616.6884"
   y="397.02261"
   id="text6"
   transform="scale(0.88282276,1.1327302)"><tspan
     id="tspan6"
     style="font-style:normal;font-variant:normal;font-weight:normal;font-stretch:normal;font-size:460.8px;font-family:'Dayten Vintage Personal Use';-inkscape-font-specification:'Dayten Vintage Personal Use';stroke-width:10.8899"
     x="1616.6884"
     y="397.02261">World</tspan></text></svg>
